<svg width="169" height="44" viewBox="0 0 169 44" fill="none" xmlns="http://www.w3.org/2000/svg">
<path fill-rule="evenodd" clip-rule="evenodd" d="M17.2352 5.50549C19.3527 1.83883 24.6474 1.83883 26.763 5.50549L40.2472 28.8768C42.3629 32.5435 39.7155 37.1268 35.4824 37.1268H8.51588C4.28271 37.1268 1.63721 32.5435 3.75288 28.8768L17.2334 5.50549H17.2352ZM22 15.125C22.3647 15.125 22.7144 15.2699 22.9723 15.5277C23.2302 15.7856 23.375 16.1353 23.375 16.5V23.375C23.375 23.7397 23.2302 24.0894 22.9723 24.3473C22.7144 24.6051 22.3647 24.75 22 24.75C21.6354 24.75 21.2856 24.6051 21.0278 24.3473C20.7699 24.0894 20.625 23.7397 20.625 23.375V16.5C20.625 16.1353 20.7699 15.7856 21.0278 15.5277C21.2856 15.2699 21.6354 15.125 22 15.125ZM22 30.25C22.3647 30.25 22.7144 30.1051 22.9723 29.8473C23.2302 29.5894 23.375 29.2397 23.375 28.875C23.375 28.5103 23.2302 28.1606 22.9723 27.9027C22.7144 27.6449 22.3647 27.5 22 27.5C21.6354 27.5 21.2856 27.6449 21.0278 27.9027C20.7699 28.1606 20.625 28.5103 20.625 28.875C20.625 29.2397 20.7699 29.5894 21.0278 29.8473C21.2856 30.1051 21.6354 30.25 22 30.25Z" fill="#C02A2A"/>
<path d="M51.9815 26H50.294L53.3665 17.2727H55.3182L58.3949 26H56.7074L54.3764 19.0625H54.3082L51.9815 26ZM52.0369 22.5781H56.6392V23.848H52.0369V22.5781ZM59.7159 17.2727L61.9872 24.142H62.0767L64.3438 17.2727H66.0824L63.0057 26H61.054L57.9815 17.2727H59.7159ZM68.8129 17.2727V26H67.2319V17.2727H68.8129ZM75.2678 19.6719C75.228 19.2997 75.0604 19.0099 74.7649 18.8026C74.4723 18.5952 74.0916 18.4915 73.6229 18.4915C73.2933 18.4915 73.0107 18.5412 72.7749 18.6406C72.5391 18.7401 72.3587 18.875 72.2337 19.0455C72.1087 19.2159 72.0447 19.4105 72.0419 19.6293C72.0419 19.8111 72.0831 19.9687 72.1655 20.1023C72.2507 20.2358 72.3658 20.3494 72.5107 20.4432C72.6555 20.5341 72.8161 20.6108 72.9922 20.6733C73.1683 20.7358 73.3459 20.7884 73.5249 20.831L74.343 21.0355C74.6726 21.1122 74.9893 21.2159 75.2933 21.3466C75.6001 21.4773 75.8743 21.642 76.1158 21.8409C76.3601 22.0398 76.5533 22.2798 76.6953 22.5611C76.8374 22.8423 76.9084 23.1719 76.9084 23.5497C76.9084 24.0611 76.7777 24.5114 76.5163 24.9006C76.255 25.2869 75.8771 25.5895 75.3828 25.8082C74.8913 26.0241 74.2962 26.1321 73.5973 26.1321C72.9183 26.1321 72.3288 26.027 71.8288 25.8168C71.3317 25.6065 70.9425 25.2997 70.6612 24.8963C70.3828 24.4929 70.2322 24.0014 70.2095 23.4219H71.7649C71.7876 23.7259 71.8814 23.9787 72.0462 24.1804C72.2109 24.3821 72.4254 24.5327 72.6896 24.6321C72.9567 24.7315 73.255 24.7812 73.5845 24.7812C73.9283 24.7812 74.2294 24.7301 74.4879 24.6278C74.7493 24.5227 74.9538 24.3778 75.1016 24.1932C75.2493 24.0057 75.3246 23.7869 75.3274 23.5369C75.3246 23.3097 75.2578 23.1222 75.1271 22.9744C74.9964 22.8239 74.8132 22.6989 74.5774 22.5994C74.3445 22.4972 74.0717 22.4062 73.7592 22.3267L72.7663 22.071C72.0476 21.8864 71.4794 21.6065 71.0618 21.2315C70.647 20.8537 70.4396 20.3523 70.4396 19.7273C70.4396 19.2131 70.5788 18.7628 70.8572 18.3764C71.1385 17.9901 71.5206 17.6903 72.0036 17.4773C72.4865 17.2614 73.0334 17.1534 73.6442 17.1534C74.2635 17.1534 74.8061 17.2614 75.272 17.4773C75.7408 17.6903 76.1087 17.9872 76.3757 18.3679C76.6428 18.7457 76.7805 19.1804 76.7891 19.6719H75.2678ZM86.1161 21.6364C86.1161 22.5767 85.94 23.3821 85.5877 24.0526C85.2383 24.7202 84.761 25.2315 84.1559 25.5866C83.5536 25.9418 82.8704 26.1193 82.1062 26.1193C81.342 26.1193 80.6573 25.9418 80.0522 25.5866C79.4499 25.2287 78.9727 24.7159 78.6204 24.0483C78.271 23.3778 78.0962 22.5739 78.0962 21.6364C78.0962 20.696 78.271 19.892 78.6204 19.2244C78.9727 18.554 79.4499 18.0412 80.0522 17.6861C80.6573 17.331 81.342 17.1534 82.1062 17.1534C82.8704 17.1534 83.5536 17.331 84.1559 17.6861C84.761 18.0412 85.2383 18.554 85.5877 19.2244C85.94 19.892 86.1161 20.696 86.1161 21.6364ZM84.5266 21.6364C84.5266 20.9744 84.4229 20.4162 84.2156 19.9616C84.011 19.5043 83.7269 19.1591 83.3633 18.9261C82.9996 18.6903 82.5806 18.5724 82.1062 18.5724C81.6317 18.5724 81.2127 18.6903 80.8491 18.9261C80.4854 19.1591 80.1999 19.5043 79.9925 19.9616C79.788 20.4162 79.6857 20.9744 79.6857 21.6364C79.6857 22.2983 79.788 22.858 79.9925 23.3153C80.1999 23.7699 80.4854 24.1151 80.8491 24.3509C81.2127 24.5838 81.6317 24.7003 82.1062 24.7003C82.5806 24.7003 82.9996 24.5838 83.3633 24.3509C83.7269 24.1151 84.011 23.7699 84.2156 23.3153C84.4229 22.858 84.5266 22.2983 84.5266 21.6364ZM92.1683 17.2727V26H90.5874V17.2727H92.1683ZM93.8803 17.2727H95.815L98.4059 23.5966H98.5082L101.099 17.2727H103.034V26H101.517V20.0043H101.436L99.0238 25.9744H97.8903L95.4783 19.9915H95.3974V26H93.8803V17.2727ZM104.755 26V17.2727H108.028C108.699 17.2727 109.261 17.3977 109.716 17.6477C110.173 17.8977 110.518 18.2415 110.751 18.679C110.987 19.1136 111.105 19.608 111.105 20.1619C111.105 20.7216 110.987 21.2187 110.751 21.6534C110.515 22.0881 110.167 22.4304 109.707 22.6804C109.247 22.9276 108.68 23.0511 108.007 23.0511H105.838V21.7514H107.794C108.186 21.7514 108.507 21.6832 108.757 21.5469C109.007 21.4105 109.191 21.223 109.311 20.9844C109.433 20.7457 109.494 20.4716 109.494 20.1619C109.494 19.8523 109.433 19.5795 109.311 19.3438C109.191 19.108 109.005 18.9247 108.752 18.794C108.502 18.6605 108.18 18.5938 107.785 18.5938H106.336V26H104.755ZM120.276 21.6364C120.276 22.5767 120.1 23.3821 119.748 24.0526C119.398 24.7202 118.921 25.2315 118.316 25.5866C117.714 25.9418 117.031 26.1193 116.266 26.1193C115.502 26.1193 114.817 25.9418 114.212 25.5866C113.61 25.2287 113.133 24.7159 112.781 24.0483C112.431 23.3778 112.256 22.5739 112.256 21.6364C112.256 20.696 112.431 19.892 112.781 19.2244C113.133 18.554 113.61 18.0412 114.212 17.6861C114.817 17.331 115.502 17.1534 116.266 17.1534C117.031 17.1534 117.714 17.331 118.316 17.6861C118.921 18.0412 119.398 18.554 119.748 19.2244C120.1 19.892 120.276 20.696 120.276 21.6364ZM118.687 21.6364C118.687 20.9744 118.583 20.4162 118.376 19.9616C118.171 19.5043 117.887 19.1591 117.523 18.9261C117.16 18.6903 116.741 18.5724 116.266 18.5724C115.792 18.5724 115.373 18.6903 115.009 18.9261C114.646 19.1591 114.36 19.5043 114.153 19.9616C113.948 20.4162 113.846 20.9744 113.846 21.6364C113.846 22.2983 113.948 22.858 114.153 23.3153C114.36 23.7699 114.646 24.1151 115.009 24.3509C115.373 24.5838 115.792 24.7003 116.266 24.7003C116.741 24.7003 117.16 24.5838 117.523 24.3509C117.887 24.1151 118.171 23.7699 118.376 23.3153C118.583 22.858 118.687 22.2983 118.687 21.6364ZM121.771 26V17.2727H125.044C125.714 17.2727 126.277 17.3892 126.731 17.6222C127.189 17.8551 127.534 18.1818 127.767 18.6023C128.002 19.0199 128.12 19.5071 128.12 20.0639C128.12 20.6236 128.001 21.1094 127.762 21.5213C127.527 21.9304 127.179 22.2472 126.718 22.4716C126.258 22.6932 125.693 22.804 125.022 22.804H122.691V21.4915H124.809C125.201 21.4915 125.522 21.4375 125.772 21.3295C126.022 21.2187 126.207 21.0582 126.326 20.848C126.449 20.6349 126.51 20.3736 126.51 20.0639C126.51 19.7543 126.449 19.4901 126.326 19.2713C126.204 19.0497 126.018 18.8821 125.768 18.7685C125.518 18.652 125.196 18.5938 124.801 18.5938H123.352V26H121.771ZM126.279 22.0455L128.44 26H126.676L124.554 22.0455H126.279ZM129.192 18.598V17.2727H136.155V18.598H133.458V26H131.89V18.598H129.192ZM137.564 26H135.876L138.949 17.2727H140.9L143.977 26H142.289L139.958 19.0625H139.89L137.564 26ZM137.619 22.5781H142.221V23.848H137.619V22.5781ZM152.298 17.2727V26H150.892L146.78 20.0554H146.707V26H145.126V17.2727H146.541L150.649 23.2216H150.726V17.2727H152.298ZM153.637 18.598V17.2727H160.6V18.598H157.903V26H156.335V18.598H153.637ZM161.943 26V17.2727H167.619V18.598H163.524V20.9673H167.325V22.2926H163.524V24.6747H167.653V26H161.943Z" fill="#C02A2A"/>
</svg>
